<svg id="Layer_1" data-name="Layer 1" xmlns="http://www.w3.org/2000/svg" viewBox="0 0 583.17 157.13"><defs><style>.cls-1{fill:#fff;}.cls-1,.cls-2,.cls-3{stroke:#fff;stroke-width:11px;}.cls-1,.cls-2{stroke-miterlimit:10;}.cls-2,.cls-3{fill:none;}.cls-3{stroke-linejoin:round;}.cls-4{fill:#fff;}</style></defs><title>logo</title><path class="cls-1" d="M37.67,6"/><path class="cls-2" d="M111,8.91H58.25c-53,0-52.75,34-52.75,34S6.08,77.35,58.25,77.35c34.47,0,46.42,15.15,50.56,25.43a27.66,27.66,0,0,1,.1,20.41C99.1,147,58.25,146.74,58.25,146.74H5.5"/><polyline class="cls-3" points="325.5 149.82 325.5 8.82 425.5 146.76 425.5 5.83"/><path class="cls-4" d="M293.37,94.09l-0.42,1.38c0.07-.45.18-1,0.32-1.65l0.4-2.12a99.67,99.67,0,0,1-8.36,23A99.69,99.69,0,0,1,279,125.22a107,107,0,0,1-6.6,8.48c-1.66,1.62-3.21,3.16-4.42,4.31a13.6,13.6,0,0,0-2.06,2.27c-0.14.53,2.82-1.32,6.25-4.61,0.8-.68,1.65-1.55,2.21-2.06a64.53,64.53,0,0,0,7.71-8.23,70.61,70.61,0,0,0,7.2-11L288,116.74,286.47,119c0.7-1.14,1.42-2.26,2.05-3.47s1.33-2.44,1.92-3.81l-0.6.86a61.17,61.17,0,0,0,5.38-14.16,55.74,55.74,0,0,0,1.66-12.89c-0.08-3.19-.4-4.21-0.82-3.34s-0.89,3.65-1.77,8l-0.45,1.93-0.31,1.32C293.45,93.86,293.37,94.09,293.37,94.09Z"/><path class="cls-4" d="M286.45,109.07a78.93,78.93,0,0,0,5.44-14.24l0.34-.95-0.59.22v0.1A62.57,62.57,0,0,1,285.81,113l-0.55,1.16c-0.28.58-.56,1.16-0.56,1.16a10.35,10.35,0,0,0-.91,2.14c0,0.33.27,0,.81-0.72a26,26,0,0,0,2.06-3.46l0.28-.54c0.18-.32.4-0.76,0.6-1.21l0.83-1.77a66.64,66.64,0,0,0,5.2-15.66,45.55,45.55,0,0,0,.87-13.28c-0.17-1.19-.46-0.16-0.71.08-0.18-.18-0.31.6-0.56,2l-0.8,5.72c-0.67,4.6-1.44,8.54-1.18,8.94l-0.72,2.29L290.86,98a43.41,43.41,0,0,1-2.26,8.5l-0.26.7c-0.16.42-.35,1-0.6,1.53l-0.95,2.2,1.86-2.15s0.22-.59.42-1.19l0.41-1.19c-0.1.17-.29,0.49-0.28,0.46a86.94,86.94,0,0,0,3.5-14l0.42-3.24,0.26-3.25c0-.88-0.06-1.29-0.15-1.24a4.84,4.84,0,0,0-.42,1.51l-0.54,2.82,0.27-1.27a76.19,76.19,0,0,1-5.66,19.19,25.21,25.21,0,0,0-1.07,2.61C285.71,110.39,286,110,286.45,109.07Z"/><path class="cls-4" d="M292.44,86.69a26,26,0,0,0,.44-3.59l0-.65-0.3,2.07C292.37,86,292.3,86.76,292.44,86.69Z"/><path class="cls-4" d="M292.86,82.45c0.08-.52.11-0.86,0.11-0.86,0,0.2-.07.39-0.11,0.58v0.29Z"/><path class="cls-4" d="M153.72,30.06a79.31,79.31,0,0,1,23.45-20.2A78.08,78.08,0,0,1,206.6.27,5.19,5.19,0,0,0,207.9,0a3.7,3.7,0,0,0-1.15.06A78.19,78.19,0,0,0,177.26,9.6a79.44,79.44,0,0,0-23.53,20.14,5.94,5.94,0,0,0-.78,1.13A3.35,3.35,0,0,0,153.72,30.06Z"/><path class="cls-4" d="M280.33,42.26c-0.26-.38-0.3-0.34-0.09.09s0.52,1,.76,1.41,0.26,0.29.09-.09A8.2,8.2,0,0,0,280.33,42.26Z"/><path class="cls-4" d="M274.85,40.77c-0.72-1.07-1.43-2.11-2.19-3.05l-1.09-1.4-1.11-1.27a11.94,11.94,0,0,1-.74-1c0,0.17-.32-0.18-1-0.85a72.06,72.06,0,0,0-22.33-16.59A68.79,68.79,0,0,0,233,11.93a68,68,0,0,0-14.12-1.81,2.89,2.89,0,0,1-.81.17c-1.31.15-3.93,0.23-6.63,0.39l-2,.1a67.79,67.79,0,0,0-23.76,6.53c-1.48.83-3.15,1.84-5,3a70,70,0,0,0-15.77,14.46,1.15,1.15,0,0,1,.62-0.42,3,3,0,0,1-.62,1c-0.4.55-.91,1.29-1.52,2s-1.16,1.58-1.73,2.37A67.1,67.1,0,0,1,167,33.27l0.79-.79A68.21,68.21,0,0,1,249.7,19a10.66,10.66,0,0,1,1.28.76c0.2,0.16.13,0.19-.3,0a64.86,64.86,0,0,0-22.56-7A71.1,71.1,0,0,0,203.42,14a65.54,65.54,0,0,0-15,5.43A65,65,0,0,0,164.75,40a64.19,64.19,0,0,0-7.45,14A58.9,58.9,0,0,0,153.24,70a61.49,61.49,0,0,0,.25,16.17,62.29,62.29,0,0,0,12.87,29.76,63.24,63.24,0,0,0,37.18,22.83,64.6,64.6,0,0,0,21.8.47A62.7,62.7,0,0,0,246,132.15a94.27,94.27,0,0,0,12.32-8.45c3.24-2.57,5.42-4.58,6.31-4.8s-0.09,2.17-3.23,5.82c0.71-.64,1.35-1.33,2-2l0.5-.5c0.31-.29.69-0.7,1.07-1.12l1.52-1.66c2.82-3.21,5-6.17,6.47-8l1-1.28c0.51-.63,1-1.31,1-1.31a34.59,34.59,0,0,0,2.13-3l1.1-1.72,1-1.81c1.37-2.41,2.51-4.86,3.4-6.5l0.09,0.87,0.33-.8A31.81,31.81,0,0,1,285,90.79l0.34,0.35c0.36,0.69.44,2.19,0.29,4.59,0.18,0,.27.28,0.25,0.91,0.92-1.86,1.5-2.74,1.6-1,0.39-1.19.51-.95,0.27,0.53-0.09.51-.25,1.11-0.41,1.72h0c0.28-.64.38-0.82,0.72-1.69l0.5-1.91c0.43-1.61.55-2.43,0.71-3.19s0.34-1.46.53-2.89l0.58-2.9,0.2-1.07c0.91-2.7.91-2.73,1.18-2.27l0,0.55c0.23-2.23.19-2.39,0.25-3s0.14-1.07.14-1.07c0.16-.1.16-0.1,0.23-0.48,0.07-.12.12-0.09,0.12-0.09a3.32,3.32,0,0,0,.2,1.3c0,0.3.07,0.71,0.07,0.71,0,1.48,0,2.08,0,2.32l-0.66,3.14a4.42,4.42,0,0,1,.07.7l-0.28.71,0.23-.4-0.31,1.58,0.38-1.8-0.5,3.48-0.32,1.78-0.37,2-0.21,1a0.22,0.22,0,0,1,.12-0.12c-0.49,2-.73,3-1,3.92s-0.53,1.92-1.22,3.78l-0.41.84a11.1,11.1,0,0,1-.58,1.83L287,106.56l-0.14.42h0c-0.22.67-.41,1.12-0.61,1.64l-0.13.34v0a67.3,67.3,0,0,1-3.11,6.95c-0.63,1.06-1.22,2-1.85,2.93l0.61-.81c0.4-.52.22,0.06,0.41-0.23a74.09,74.09,0,0,0,10.43-25.58,24.27,24.27,0,0,1,.77-3.47c0.16-.2.14,1-0.18,2.75a70.94,70.94,0,0,1-10.85,29.18,73.39,73.39,0,0,1-22.42,22.15A79.2,79.2,0,0,1,246,150.1c0.24-.07.49-0.13,0.73-0.22-1.27.49-2.56,0.93-3.83,1.4l-0.42.14c1-.25,2-0.56,3-0.85,0.68-.23,1.35-0.47,2-0.76a82.3,82.3,0,0,0,39.34-34.68c0.73-1.39,1.32-2.32,1.34-2.11a15.22,15.22,0,0,1-1.3,2.93,76.08,76.08,0,0,1-20.1,24.23A74.16,74.16,0,0,1,254,148.32a67.67,67.67,0,0,1-12.48,4.78,55.47,55.47,0,0,1-9.92,2.41l-0.16,0c0.78,0,1.49-.16,2.27-0.25a28,28,0,0,1-3.43.54c-1,.1-2,0.25-3.27.35l1,0.2a83.73,83.73,0,0,1-20.79.21,70.86,70.86,0,0,1-19.34-5.08l-1.34-.56a66.24,66.24,0,0,1-15.44-7.76c1.79,1.25,3.55,2.45,5.44,3.54a67.27,67.27,0,0,1-11.86-8,73.69,73.69,0,0,1-7.38-7.23,70.67,70.67,0,0,1-6.05-8,56.43,56.43,0,0,1-6.75-13.88,78.24,78.24,0,0,1-6.63-37.93,75.77,75.77,0,0,1,3.8-19.05A76.87,76.87,0,0,1,150,35.05a10.47,10.47,0,0,1,1.68-2.22c0.17,0-.31.7-1,1.83A79,79,0,0,0,139.07,88.2a78.57,78.57,0,0,1,8.23-45.76c0.45-.91.92-1.82,1.43-2.7s1-1.8,1.54-2.65l1.64-2.54,1.78-2.42a77.91,77.91,0,0,1,22-20.23A78.81,78.81,0,0,1,229.48,1.23a77.89,77.89,0,0,1,24.24,8.11,78,78,0,0,1,27.25,24,76.38,76.38,0,0,1,8.61,15.91,74.27,74.27,0,0,1,4.69,17.85c0.11,0.83.21,1.64,0.29,2.4s0.08,1.47.1,2.09a8.11,8.11,0,0,1-.13,2.31c-0.11.21-.25-0.29-0.42-1.24s-0.28-2.37-.54-4a77.27,77.27,0,0,0-14.16-35.41,75.72,75.72,0,0,0-13-13.95A77.91,77.91,0,0,0,193.9,4.5a77.13,77.13,0,0,0-31.3,18.4,0.23,0.23,0,0,1,.17,0,2.47,2.47,0,0,1-.77,1.24,75.9,75.9,0,0,1,15.06-11.57A73.6,73.6,0,0,1,238.76,5a75.18,75.18,0,0,1,8.56,3.45A73.34,73.34,0,0,1,262.47,18a76,76,0,0,1,26.17,36.65,6.46,6.46,0,0,1,.38,1.43c0,0.23-.12-0.08-0.31-0.67a77.6,77.6,0,0,0-16.28-27.48c1,1.39,1.51,2.28,1.25,2.32S272.41,29.44,271,28l2.36,2.75c0.74,1,1.5,1.9,2.22,2.86a8.41,8.41,0,0,1,1.35,2.26,8.58,8.58,0,0,1-1.69-2A74,74,0,0,0,253.59,14.3a74.42,74.42,0,0,0-16.13-6.93,75.72,75.72,0,0,0-17.29-2.91,16.14,16.14,0,0,1,3.33.79h0c1.79,0.23,3.58.4,5.34,0.75a72.36,72.36,0,0,1,61,70.58,4.18,4.18,0,0,1-.06,1.24,3.28,3.28,0,0,1-.12-1.11,72.23,72.23,0,0,0-6.84-29.92l0,0c0.14,0.39.12,0.48-.1,0.09s-0.52-1.08-.69-1.45-0.11-.43.09-0.1A72.47,72.47,0,0,0,240.44,9a72.94,72.94,0,0,1,22.42,12.76,71.74,71.74,0,0,1,16.49,19.81c1,1.58,1.9,3.25,2.81,4.94a8.77,8.77,0,0,1,.52,1.32,1,1,0,0,1-.42-0.66c-0.24-.48-0.45-1-0.72-1.41a38.74,38.74,0,0,1,1.56,3.8c0.29,1,.41,1.61.27,1.63a5.24,5.24,0,0,1-1.05-1.69c-0.57-1-1.17-2.4-2-3.88a73.08,73.08,0,0,0-16.2-21.16L262,22.62c-0.77-.59-1.57-1.14-2.35-1.71A71.46,71.46,0,0,1,283.26,54a7.4,7.4,0,0,1,.54,2.13,6.26,6.26,0,0,1-.84-1.92A71,71,0,0,0,262.65,25a70.7,70.7,0,0,0-32-15.79A70.38,70.38,0,0,0,207,9.49c1-.12,2-0.26,3-0.31L212.44,9l2.38-.07,1.18,0,1.18,0,2.34,0a76.35,76.35,0,0,1,9.15,1A71.09,71.09,0,0,1,245.82,15a67.91,67.91,0,0,1,27.95,22.72,4,4,0,0,1,.65,1.07,2.58,2.58,0,0,1-.65-0.77A65.66,65.66,0,0,0,261.52,25a70.34,70.34,0,0,0-15-9.39,66.9,66.9,0,0,0-27.86-6.23,70.62,70.62,0,0,1,27.05,6.26A68.15,68.15,0,0,1,268.13,32a20,20,0,0,1,1.39,1.68,1.62,1.62,0,0,1,.34.32,56.91,56.91,0,0,1,4.7,6,8,8,0,0,1,.72,1.22C275.39,41.46,275.18,41.23,274.85,40.77Zm-14.14,97.51,0.45-.26c-0.46.31-1,.62-1.53,1l-0.29.14c-0.29.13-.84,0.45-2,1,0,0,.44-0.2,1.06-0.56ZM280.28,114v0c0.53-.65.89-1.14,0.89-1.14C280.82,113.35,280.52,113.7,280.28,114ZM139,73.06a80.78,80.78,0,0,0,4.72,32.72,75.19,75.19,0,0,1-2.59-7.69A80,80,0,0,1,139,85.66,81.57,81.57,0,0,1,139,73.06ZM277,124.3a50.05,50.05,0,0,1-5.25,5.13l-2,2.14-2.16,2.07A71.68,71.68,0,0,1,254.81,143c0.65-.22-0.43.39-1,0.72l-1.68,1a78,78,0,0,0,13.93-9.3A81.62,81.62,0,0,0,277,124.3Zm14.41-35.67,0.11-.46,0.07,1.06ZM291.23,87l-0.13.78A1.38,1.38,0,0,1,291.23,87Zm-1.46,7.1c0.15-.41.24-0.65,0.34-1Zm-7,3.29,0.13,1.4,0.07,1.4V98.65l-0.08-1.51Z"/><line class="cls-2" x1="462.5" y1="5.83" x2="462.5" y2="149.83"/><path class="cls-2" d="M583,8.89s-79-2.34-79,68.94,79,68.87,79,68.87"/></svg>
